<svg width="1024" height="1024" viewBox="0 0 1024 1024" fill="none" xmlns="http://www.w3.org/2000/svg">
  <rect x="64" y="64" width="896" height="896" rx="216" fill="#152035"/>
  <g transform="translate(162 162) scale(7)">
    <path d="M24 10H15C12.2 10 10 12.2 10 15V25M76 10H85C87.8 10 90 12.2 90 15V25M10 75V85C10 87.8 12.2 90 15 90H24M76 90H85C87.8 90 90 87.8 90 85V75" stroke="white" stroke-width="7" stroke-linecap="round" stroke-linejoin="round"/>
    <path d="M15 57C21 57 21 52 26 52C30 52 30 60 34 60C39 60 40 49 45 49C50 49 50 57 54 57" stroke="#0A84FF" stroke-width="6" stroke-linecap="round" stroke-linejoin="round"/>
    <path d="M54 57C59 57 59 31 65 31C71 31 72 55 77 55" stroke="#FF7A3D" stroke-width="6" stroke-linecap="round" stroke-linejoin="round"/>
    <path d="M77 55C81 55 82 46 86 46C89 46 89 56 90 56" stroke="#0A84FF" stroke-width="6" stroke-linecap="round" stroke-linejoin="round"/>
    <rect x="27" y="69" width="6" height="9" rx="3" fill="#0A84FF"/>
    <rect x="41" y="65" width="6" height="13" rx="3" fill="#0A84FF"/>
    <rect x="55" y="68" width="6" height="10" rx="3" fill="#0A84FF"/>
    <rect x="69" y="62" width="6" height="16" rx="3" fill="#FF7A3D"/>
    <rect x="83" y="68" width="6" height="10" rx="3" fill="#0A84FF"/>
  </g>
</svg>
